<svg id="Capa_1" data-name="Capa 1" xmlns="http://www.w3.org/2000/svg" viewBox="0 0 739.71 592.07"><defs><style>.cls-1{fill:#fff;}.cls-2{font-size:280px;fill:#3b827e;font-family:MyriadPro-Regular, Myriad Pro;}</style></defs><title>add_photo_inventaire</title><path class="cls-1" d="M688.58,106.55H597.76L555.14,0H285L242.39,106.55H228.3V53.28H164.37v53.27H151.58a51.18,51.18,0,0,0-51.14,51.13v312.9a51.55,51.55,0,0,0,51.5,51.49H688.22a51.55,51.55,0,0,0,51.49-51.49V157.68A51.18,51.18,0,0,0,688.58,106.55Zm-502.9-32H207v32H185.71Zm532.72,396a30.22,30.22,0,0,1-30.18,30.18H151.94a30.21,30.21,0,0,1-30.23-30.15V157.68a29.87,29.87,0,0,1,29.83-29.82H256.82L299.44,21.31H540.71l42.62,106.55H688.58a29.86,29.86,0,0,1,29.82,29.82V470.55Z"/><path class="cls-1" d="M420.08,95.89c-105.75,0-191.78,86-191.78,191.78s86,191.78,191.78,191.78,191.78-86,191.78-191.78S525.82,95.89,420.08,95.89Zm0,362.25c-94,0-170.47-76.47-170.47-170.47S326.08,117.2,420.08,117.2s170.47,76.48,170.47,170.47S514.07,458.14,420.08,458.14Z"/><path class="cls-1" d="M420.08,159.82A127.86,127.86,0,1,0,547.93,287.69v0A128,128,0,0,0,420.08,159.82Zm0,234.4A106.55,106.55,0,1,1,526.62,287.66h0A106.68,106.68,0,0,1,420.08,394.22Z"/><path class="cls-1" d="M654.47,149.17a42.62,42.62,0,1,0,42.62,42.62h0A42.65,42.65,0,0,0,654.47,149.17Zm0,63.92a21.31,21.31,0,1,1,21.31-21.31h0a21.32,21.32,0,0,1-21.31,21.29Z"/><circle class="cls-1" cx="111.85" cy="448.07" r="111.85"/><text class="cls-2" transform="translate(27.97 522.07)">+</text></svg>