<svg id="Capa_1" data-name="Capa 1" xmlns="http://www.w3.org/2000/svg" viewBox="0 0 739.71 592.07"><defs><style>.cls-1{fill:#3b827e;}.cls-2{font-size:280px;fill:#fff;font-family:MyriadPro-Regular, Myriad Pro;}</style></defs><title>add_photo</title><path class="cls-1" d="M460.87,219.48H370.05L327.43,112.93H57.3L14.68,219.48H.59V166.21H-63.34v53.27H-76.13a51.18,51.18,0,0,0-51.14,51.13v312.9A51.55,51.55,0,0,0-75.77,635H460.51A51.55,51.55,0,0,0,512,583.51V270.61A51.18,51.18,0,0,0,460.87,219.48Zm-502.9-32h21.31v32H-42Zm532.72,396a30.21,30.21,0,0,1-30.18,30.18H-75.77A30.22,30.22,0,0,1-106,583.51V270.61a29.87,29.87,0,0,1,29.83-29.82H29.11L71.73,134.24H313l42.62,106.55H460.87a29.86,29.86,0,0,1,29.82,29.82v312.9Z" transform="translate(227.71 -112.93)"/><path class="cls-1" d="M192.37,208.82C86.62,208.82.59,294.86.59,400.6s86,191.78,191.78,191.78,191.78-86,191.78-191.78S298.11,208.82,192.37,208.82Zm0,362.25c-94,0-170.47-76.47-170.47-170.47S98.37,230.13,192.37,230.13,362.84,306.61,362.84,400.6,286.36,571.07,192.37,571.07Z" transform="translate(227.71 -112.93)"/><path class="cls-1" d="M192.37,272.75A127.86,127.86,0,1,0,320.22,400.6,128,128,0,0,0,192.37,272.75Zm0,234.4A106.55,106.55,0,1,1,298.91,400.6,106.67,106.67,0,0,1,192.37,507.15Z" transform="translate(227.71 -112.93)"/><path class="cls-1" d="M426.76,262.1a42.62,42.62,0,1,0,42.62,42.61A42.65,42.65,0,0,0,426.76,262.1Zm0,63.92a21.31,21.31,0,1,1,21.31-21.31A21.33,21.33,0,0,1,426.76,326Z" transform="translate(227.71 -112.93)"/><circle class="cls-1" cx="111.85" cy="448.07" r="111.85"/><text class="cls-2" transform="translate(27.97 522.07)">+</text></svg>